<?xml version="1.0" encoding="UTF-8"?>
<!DOCTYPE svg PUBLIC "-//W3C//DTD SVG 1.1//EN" "http://www.w3.org/Graphics/SVG/1.1/DTD/svg11.dtd">
<!-- Creator: CorelDRAW X6 -->
<svg xmlns="http://www.w3.org/2000/svg" xml:space="preserve" width="297mm" height="210mm" version="1.1" style="shape-rendering:geometricPrecision; text-rendering:geometricPrecision; image-rendering:optimizeQuality; fill-rule:evenodd; clip-rule:evenodd"
viewBox="0 0 29700 21000"
 xmlns:xlink="http://www.w3.org/1999/xlink">
 <defs>
  <style type="text/css">
   <![CDATA[
    .fil0 {fill:#EA0404}
    .fil1 {fill:white}
   ]]>
  </style>
 </defs>
 <g id="Capa_x0020_1">
  <metadata id="CorelCorpID_0Corel-Layer"/>
  <g id="_189432288">
   <path class="fil0" d="M11777 11825l595 -2285c605,-62 1485,-13 2119,-12 369,0 690,64 862,-191 194,-289 14,-603 -258,-668 -1017,-244 -3381,557 -3381,-856l0 -354c0,-173 44,-138 212,-138l2963 0c1455,0 2169,1320 1721,2433 -549,1362 -2017,1089 -3272,1089 -133,759 -216,1247 -837,1247 -851,0 -801,57 -725,-265zm-2717 -2111c155,2632 2265,4784 5069,4666 2646,-111 4741,-2287 4663,-5065 -74,-2616 -2340,-4788 -5083,-4665 -2583,116 -4810,2337 -4649,5064z"/>
   <path class="fil1" d="M11715 7459l0 354c0,1413 2364,612 3381,856 272,65 452,380 258,668 -172,256 -493,192 -862,191 -634,-1 -1514,-50 -2119,12l-595 2285c-77,322 -126,265 725,265 621,0 704,-488 837,-1247 1255,0 2723,273 3272,-1089 448,-1113 -266,-2433 -1721,-2433l-2963 0c-168,0 -212,-35 -212,138z"/>
  </g>
 </g>
</svg>
